<?xml version="1.0" encoding="UTF-8"?>
<!DOCTYPE svg PUBLIC "-//W3C//DTD SVG 1.1//EN" "http://www.w3.org/Graphics/SVG/1.1/DTD/svg11.dtd">
<svg xmlns="http://www.w3.org/2000/svg" version="1.1" width="301px" height="283px" style="shape-rendering:geometricPrecision; text-rendering:geometricPrecision; image-rendering:optimizeQuality; fill-rule:evenodd; clip-rule:evenodd" xmlns:xlink="http://www.w3.org/1999/xlink">
<g><path style="opacity:0.957" fill="#ffbb00" d="M 236.5,282.5 C 224.5,282.5 212.5,282.5 200.5,282.5C 203.144,279.006 205.644,275.34 208,271.5C 208.667,196.5 208.667,121.5 208,46.5C 188.333,72.8333 168.667,99.1667 149,125.5C 147.267,127.602 145.267,127.935 143,126.5C 123,99.8333 103,73.1667 83,46.5C 82.3333,121.167 82.3333,195.833 83,270.5C 84.9286,274.914 87.4286,278.914 90.5,282.5C 78.8333,282.5 67.1667,282.5 55.5,282.5C 55.3505,281.448 55.5172,280.448 56,279.5C 59.9156,276.903 62.2489,273.236 63,268.5C 63.6667,184.5 63.6667,100.5 63,16.5C 62.3188,11.8118 59.9855,8.14511 56,5.5C 55.5172,4.55198 55.3505,3.55198 55.5,2.5C 67.8333,2.5 80.1667,2.5 92.5,2.5C 90.6274,5.56604 88.4607,8.56604 86,11.5C 85.2937,13.9712 85.627,16.3046 87,18.5C 106.308,44.6414 125.808,70.6414 145.5,96.5C 164.989,70.8718 184.489,45.2052 204,19.5C 205.373,17.3046 205.706,14.9712 205,12.5C 203.315,8.68809 201.148,5.35475 198.5,2.5C 211.184,2.16759 223.851,2.50092 236.5,3.5C 233.423,6.40907 230.923,9.74241 229,13.5C 228.333,99.5 228.333,185.5 229,271.5C 231.326,275.319 233.826,278.985 236.5,282.5 Z"/></g>
</svg>
