<svg width="284" height="68" viewBox="0 0 284 68" fill="none" xmlns="http://www.w3.org/2000/svg">
<path d="M43.232 0.799995V1.184C41.952 2.08 41.312 3.168 41.312 4.44799V64.352C41.312 65.632 41.952 66.72 43.232 67.616V68H34.976V67.616C36.256 66.72 36.896 65.632 36.896 64.352V10.592L21.824 30.752H21.44L6.368 10.592V64.352C6.368 65.632 7.008 66.72 8.288 67.616V68H0.0320003V67.616C1.312 66.72 1.952 65.632 1.952 64.352V4.44799C1.952 3.168 1.312 2.08 0.0320003 1.184V0.799995H8.768V1.184C6.912 2.272 6.592 3.616 7.808 5.216L21.632 23.744L35.456 5.216C36.032 4.64 36.224 3.936 36.032 3.10399C35.904 2.20799 35.392 1.568 34.496 1.184V0.799995H43.232ZM59.5693 68H51.3133V67.616C52.5933 66.72 53.2333 65.632 53.2333 64.352V4.44799C53.2333 3.168 52.5933 2.08 51.3133 1.184V0.799995H59.5693V1.184C58.2893 2.08 57.6493 3.168 57.6493 4.44799V64.352C57.6493 65.632 58.2893 66.72 59.5693 67.616V68ZM98.7298 68H67.6258V67.616C68.9058 66.72 69.5458 65.632 69.5458 64.352V4.44799C69.5458 3.168 68.9058 2.08 67.6258 1.184V0.799995H75.8818V1.184C74.6018 2.08 73.9618 3.168 73.9618 4.44799V63.776H95.9458C97.6738 63.776 98.7618 63.168 99.2098 61.952H99.6898L98.7298 68ZM134.274 68H103.17V67.616C104.45 66.72 105.09 65.632 105.09 64.352V4.44799C105.09 3.168 104.45 2.08 103.17 1.184V0.799995H111.426V1.184C110.146 2.08 109.506 3.168 109.506 4.44799V63.776H131.49C133.218 63.776 134.306 63.168 134.754 61.952H135.234L134.274 68ZM146.97 68H138.714V67.616C139.994 66.72 140.634 65.632 140.634 64.352V4.44799C140.634 3.168 139.994 2.08 138.714 1.184V0.799995H146.97V1.184C145.69 2.08 145.05 3.168 145.05 4.44799V64.352C145.05 65.632 145.69 66.72 146.97 67.616V68ZM178.738 4.352L191.314 64.448C191.57 65.664 192.37 66.72 193.714 67.616V68H185.458V67.616C186.674 67.04 187.154 65.984 186.898 64.448L183.346 47.456H161.074L157.522 64.448C157.266 65.92 157.746 66.976 158.962 67.616V68H150.706V67.616C151.986 66.656 152.786 65.6 153.106 64.448L165.682 4.352C166.002 2.88 165.522 1.824 164.242 1.184V0.799995H180.178V1.184C178.898 1.824 178.418 2.88 178.738 4.352ZM170.002 5.12L161.938 43.232H182.482L174.418 5.12H170.002ZM236.279 0.799995V1.184C234.999 2.08 234.359 3.168 234.359 4.44799V64.352C234.359 65.632 234.999 66.72 236.279 67.616V68H228.023V67.616C229.303 66.72 229.943 65.632 229.943 64.352V64.16C229.943 58.144 227.191 51.488 221.687 44.192C219.703 41.44 217.335 38.368 214.583 34.976C208.503 27.744 204.919 22.368 203.831 18.848V64.352C203.831 65.632 204.471 66.72 205.751 67.616V68H197.495V67.616C198.775 66.72 199.415 65.632 199.415 64.352V4.44799C199.415 3.168 198.775 2.08 197.495 1.184V0.799995H205.751V1.184C204.471 2.08 203.831 3.168 203.831 4.44799V4.64C203.831 10.784 206.551 17.536 211.991 24.896C213.015 26.24 215.223 28.992 218.615 33.152C222.071 37.248 224.663 40.576 226.391 43.136C228.183 45.632 229.367 47.872 229.943 49.856V4.44799C229.943 3.168 229.303 2.08 228.023 1.184V0.799995H236.279ZM268.082 4.352L280.658 64.448C280.914 65.664 281.714 66.72 283.058 67.616V68H274.802V67.616C276.018 67.04 276.498 65.984 276.242 64.448L272.69 47.456H250.418L246.866 64.448C246.61 65.92 247.09 66.976 248.306 67.616V68H240.05V67.616C241.33 66.656 242.13 65.6 242.45 64.448L255.026 4.352C255.346 2.88 254.866 1.824 253.586 1.184V0.799995H269.522V1.184C268.242 1.824 267.762 2.88 268.082 4.352ZM259.346 5.12L251.282 43.232H271.826L263.762 5.12H259.346Z" fill="#FFE600"/>
</svg>
